<svg width="20" height="30" viewBox="0 0 20 30" fill="none" xmlns="http://www.w3.org/2000/svg">
<path d="M12.2919 4.40167C13.5408 3.40667 13.9575 1.93967 13.5408 0H6.45919C5.54063 1.898 5.77612 3.42133 7.70807 4.40167H12.2919Z" fill="#E95454"/>
<path d="M9.32484 10.0933L6.45951 0L1.02527 3.57L3.62053 12.4967L9.32484 10.0933Z" fill="#ED6362"/>
<path d="M16.3795 12.4967L18.9747 3.57L13.5405 0L10.6785 10.0933L16.3795 12.4967Z" fill="#ED6362"/>
<path d="M9.99998 30C15.5228 30 20 25.4687 20 19.879C20 14.2894 15.5228 9.75769 9.99998 9.75769C6.70551 16.6637 6.44302 23.4237 9.99998 30Z" fill="#FFCC5B"/>
<path d="M10 30C4.47716 30 0 25.4687 0 19.879C0 14.2894 4.47716 9.75769 10 9.75769V29.9897" fill="#FDBC4B"/>
<path d="M7.4976 26.607C7.45676 26.607 7.41527 26.5993 7.37509 26.5833C5.60583 25.8737 4.21532 24.509 3.46012 22.741C2.70493 20.9727 2.67496 19.0127 3.37614 17.222C3.44399 17.0487 3.63731 16.9643 3.8089 17.0327C3.97984 17.1013 4.06382 17.2973 3.99597 17.4707C3.36033 19.094 3.38734 20.8707 4.07205 22.4733C4.75677 24.0763 6.01685 25.313 7.62045 25.956C7.79171 26.0247 7.87537 26.2207 7.80752 26.394C7.75581 26.5263 7.63033 26.607 7.4976 26.607Z" fill="#EC9922"/>
<path d="M16.3142 22.749C16.2731 22.749 16.2319 22.7413 16.1914 22.7253C16.0201 22.6567 15.9365 22.4607 16.0043 22.2873C17.3161 18.9367 15.6901 15.1303 12.3795 13.8023C12.2083 13.7337 12.1246 13.5377 12.1924 13.3643C12.2603 13.191 12.4539 13.1067 12.6252 13.175C16.2777 14.64 18.0716 18.8393 16.6242 22.536C16.5724 22.6683 16.4466 22.749 16.3142 22.749Z" fill="#EC9922"/>
<path d="M11.9336 24.8853H8.58643C8.19582 24.8853 7.87833 24.564 7.87833 24.169V23.0677C7.87833 22.6723 8.19582 22.3513 8.58643 22.3513H8.95827C8.9856 22.3513 9.00767 22.329 9.00767 22.3013V19.7333C8.77284 19.7927 8.51002 19.722 8.33481 19.5447L7.56545 18.766C7.28979 18.4867 7.28979 18.032 7.56545 17.7527L10.3033 14.9817C10.5062 14.776 10.8085 14.715 11.0747 14.8263C11.3404 14.9377 11.512 15.1977 11.512 15.4883V22.301C11.512 22.3287 11.5341 22.351 11.5611 22.351H11.9333C12.3239 22.351 12.641 22.6723 12.641 23.0673V24.1687C12.6417 24.564 12.3242 24.8853 11.9336 24.8853Z" fill="#EC9922"/>
</svg>
