<svg width="16" height="16" viewBox="0 0 16 16" fill="none" xmlns="http://www.w3.org/2000/svg">
<path d="M3.56328 15.9991C3.39316 15.9991 3.22414 15.9436 3.08082 15.8354C2.82811 15.6432 2.70175 15.3183 2.75426 14.9956L3.52882 10.273L0.247906 6.92858C0.0241831 6.70089 -0.0562266 6.35935 0.0400455 6.04871C0.136865 5.73806 0.393407 5.51151 0.702463 5.4646L5.23655 4.77523L7.26428 0.478266C7.40213 0.185356 7.68711 0 8 0C8.31288 0 8.59787 0.185356 8.73572 0.478266L10.7634 4.77523L15.2975 5.4646C15.606 5.51151 15.8631 5.73806 15.96 6.04871C16.0562 6.35935 15.9758 6.70032 15.7521 6.92858L12.4712 10.2736L13.2457 14.9962C13.2988 15.3183 13.1719 15.6438 12.9192 15.836C12.6659 16.0282 12.3317 16.0534 12.0549 15.9012L8 13.6712L3.94508 15.9012C3.82474 15.9665 3.69401 15.9991 3.56328 15.9991ZM8 11.8428C8.13128 11.8428 8.26201 11.876 8.38181 11.9412L11.3471 13.5717L10.781 10.118C10.7355 9.83995 10.8236 9.55562 11.0173 9.35825L13.4164 6.91256L10.1005 6.40855C9.83355 6.36793 9.60217 6.1923 9.48292 5.93944L8 2.79695L6.51763 5.93944C6.39783 6.1923 6.167 6.3685 5.90006 6.40855L2.58415 6.91256L4.98329 9.35825C5.17693 9.55562 5.265 9.83937 5.21959 10.118L4.6529 13.5717L7.61819 11.9412C7.73799 11.876 7.86872 11.8428 8 11.8428Z" fill="#E1CB30"/>
</svg>
