<svg width="60" height="60" viewBox="0 0 60 60" fill="none" xmlns="http://www.w3.org/2000/svg">
<path d="M30 60C46.5685 60 60 46.5685 60 30C60 13.4315 46.5685 0 30 0C13.4315 0 0 13.4315 0 30C0 46.5685 13.4315 60 30 60Z" fill="url(#paint0_linear_20_32)"/>
<path d="M24.5 43.75C23.528 43.75 23.6933 43.3833 23.358 42.4573L20.5 33.052L42.5 20" fill="#C8DAEA"/>
<path d="M24.5 43.75C25.25 43.75 25.5813 43.4073 26 43L30 39.1107L25.0107 36.102" fill="#A9C9DD"/>
<path d="M25.01 36.1027L37.1 45.0347C38.48 45.796 39.4753 45.402 39.8193 43.754L44.7406 20.5633C45.2446 18.5433 43.9706 17.6267 42.6506 18.226L13.7526 29.3687C11.78 30.16 11.792 31.2607 13.3933 31.7507L20.8093 34.0653L37.9773 23.234C38.788 22.7427 39.532 23.0067 38.9213 23.5487L25.01 36.1027Z" fill="#FCFDFF"/>
<defs>
<linearGradient id="paint0_linear_20_32" x1="38.7933" y1="50.506" x2="23.7933" y2="15.526" gradientUnits="userSpaceOnUse">
<stop stop-color="#37AEE2"/>
<stop offset="1" stop-color="#1E96C8"/>
</linearGradient>
</defs>
</svg>
