<svg width="60" height="60" viewBox="0 0 80 60" fill="none" xmlns="http://www.w3.org/2000/svg">
<path fill-rule="evenodd" clip-rule="evenodd" d="M78.1648 4.06249C78.7212 1.72086 78.1648 0 75.5185 0H66.7665C64.5407 0 63.5149 1.48625 62.9594 3.12629C62.9594 3.12629 58.5078 16.8258 52.2029 25.7254C50.1638 28.3016 49.2366 29.1222 48.1229 29.1222C47.5673 29.1222 46.762 28.3016 46.762 25.9611V4.06249C46.762 1.25276 46.1157 0 44.2615 0H30.5068C29.1166 0 28.2792 1.3044 28.2792 2.54144C28.2792 5.20524 31.4321 5.82039 31.7575 13.3145V29.5903C31.7575 33.1588 31.2472 33.8077 30.1343 33.8077C27.1681 33.8077 19.9503 20.0453 15.6694 4.29822C14.8303 1.23704 13.9894 0.00112193 11.7529 0.00112193H3.0009C0.499558 -6.16685e-07 0 1.48625 0 3.12516C0 6.05276 2.96623 20.5729 13.8152 39.7762C21.0472 52.8898 31.2366 60 40.5095 60C46.0722 60 46.7611 58.4206 46.7611 55.7007V45.7897C46.7611 42.6309 47.2882 42.0011 49.05 42.0011C50.3478 42.0011 52.5727 42.8195 57.7656 49.1428C63.6998 56.6369 64.6776 59.9989 68.0163 59.9989H76.7683C79.2679 59.9989 80.5185 58.4195 79.7977 55.3044C79.0074 52.1983 76.1745 47.6924 72.4154 42.3525C70.3754 39.3081 67.3149 36.0292 66.3878 34.3892C65.0891 32.2821 65.4607 31.3459 66.3878 29.4713C66.3887 29.4724 77.0527 10.5025 78.1648 4.06249Z" fill="#4D76A1"/>
</svg>
