<svg width="80" height="60" viewBox="0 0 80 60" fill="none" xmlns="http://www.w3.org/2000/svg">
<path d="M78.328 9.36952C77.408 5.6819 74.6969 2.77714 71.2551 1.79143C65.0169 -4.54131e-07 40 0 40 0C40 0 14.9831 -4.54131e-07 8.74489 1.79143C5.30311 2.77714 2.592 5.6819 1.672 9.36952C0 16.0533 0 30 0 30C0 30 0 43.9467 1.672 50.6305C2.592 54.3181 5.30311 57.2229 8.74489 58.2086C14.9831 60 40 60 40 60C40 60 65.0169 60 71.2551 58.2086C74.6969 57.2229 77.408 54.3181 78.328 50.6305C80 43.9467 80 30 80 30C80 30 80 16.0533 78.328 9.36952Z" fill="#FF0000"/>
<path d="M32 42.8571L52.7822 30L32 17.1428V42.8571Z" fill="white"/>
</svg>
