<svg xmlns="http://www.w3.org/2000/svg" xmlns:xlink="http://www.w3.org/1999/xlink" version="1.1" width="256" height="256" viewBox="0 0 256 256" xml:space="preserve">
<desc>Created with Fabric.js 1.7.22</desc>
<defs>
</defs>
<g transform="translate(128 128) scale(0.72 0.72)" style="">
	<g style="stroke: none; stroke-width: 0; stroke-dasharray: none; stroke-linecap: butt; stroke-linejoin: miter; stroke-miterlimit: 10; fill: none; fill-rule: nonzero; opacity: 1;" transform="translate(-175.05 -175.05000000000004) scale(3.89 3.89)" >
	<path d="M 77.064 57.936 C 77.064 75.644 62.709 90 45 90 S 12.936 75.644 12.936 57.936 h 0.029 c 0 -11.668 12.077 -23.404 6.259 -39.541 c 6.989 2.259 11.887 6.666 15.481 13.644 C 42.221 20.967 43.576 12.653 41.843 0 c 10.176 7.923 15.343 18.673 14.11 33.035 c 2.313 -6.937 7.173 -10.496 12.616 -13.28 c -5.146 17.928 8.466 27.175 8.466 38.181 H 77.064 z" style="stroke: none; stroke-width: 1; stroke-dasharray: none; stroke-linecap: butt; stroke-linejoin: miter; stroke-miterlimit: 10; fill: rgb(255,0,0); fill-rule: nonzero; opacity: 1;" transform=" matrix(1 0 0 1 0 0) " stroke-linecap="round" />
	<circle cx="34.571" cy="51.531000000000006" r="5.581" style="stroke: none; stroke-width: 1; stroke-dasharray: none; stroke-linecap: butt; stroke-linejoin: miter; stroke-miterlimit: 10; fill: rgb(255,255,255); fill-rule: nonzero; opacity: 1;" transform="  matrix(1 0 0 1 0 0) "/>
	<path d="M 31.732 77.427 c -0.604 0 -1.208 -0.217 -1.688 -0.656 c -1.018 -0.933 -1.088 -2.514 -0.155 -3.532 l 26.535 -28.976 c 0.933 -1.018 2.515 -1.088 3.532 -0.155 c 1.019 0.933 1.088 2.514 0.155 3.532 L 33.576 76.615 C 33.083 77.153 32.409 77.427 31.732 77.427 z" style="stroke: none; stroke-width: 1; stroke-dasharray: none; stroke-linecap: butt; stroke-linejoin: miter; stroke-miterlimit: 10; fill: rgb(255,255,255); fill-rule: nonzero; opacity: 1;" transform=" matrix(1 0 0 1 0 0) " stroke-linecap="round" />
	<circle cx="55.431000000000004" cy="69.341" r="5.581" style="stroke: none; stroke-width: 1; stroke-dasharray: none; stroke-linecap: butt; stroke-linejoin: miter; stroke-miterlimit: 10; fill: rgb(255,255,255); fill-rule: nonzero; opacity: 1;" transform="  matrix(1 0 0 1 0 0) "/>
</g>
</g>
</svg>