<svg width="20" height="20" viewBox="0 0 20 20" fill="none" xmlns="http://www.w3.org/2000/svg">
<path d="M4.18981 3.98201C4.16346 4.05046 4.13711 4.58831 4.12833 5.18483L4.10198 6.26052L3.73307 6.28985L3.35538 6.31919V5.62488C3.35538 5.0088 3.33782 4.93057 3.20607 4.95991C3.07431 4.98925 3.04796 5.10659 3.04796 5.77157V6.55389L3.57497 6.60278L4.10198 6.65168L4.12833 10.1037C4.14589 12.8027 4.17224 13.5556 4.26008 13.5165C4.33913 13.4872 4.37426 12.656 4.4094 10.0645L4.45331 6.65168H5.19991H5.9465L5.97285 12.2453L5.99042 17.8486H3.68915C1.44938 17.8486 1.38789 17.8388 1.18588 17.6335L0.983856 17.4281V17.6726C0.983856 18.1713 1.08926 18.1909 3.63645 18.2202L5.99042 18.2496V19.1297C5.99042 19.8338 6.01677 20 6.12217 20C6.22757 20 6.25392 19.8338 6.25392 19.1199V18.2398H10.9794C16.6008 18.2398 17.9886 18.2104 18.0676 18.1224C18.296 17.8682 17.7954 17.8486 12.13 17.8486H6.25392L6.27149 12.2453L6.29784 6.65168L6.84241 6.62234L7.38698 6.593L7.41333 6.9646L7.43968 7.33621H8.01061H8.58153L8.62545 6.99394L8.66936 6.65168H9.19637H9.72338L9.74973 11.3651L9.76729 16.0786L9.26664 16.108L8.7572 16.1373L8.73085 16.7925L8.7045 17.4575H9.31055H9.91661L9.99566 16.2546L10.0747 15.0616L15.0374 15.0127C19.3676 14.9736 20 14.9443 20 14.8171C20 14.69 19.3939 14.6704 15.1515 14.6411L10.2943 14.6216V10.5437C10.2943 6.95482 10.2767 6.44632 10.1538 6.29963C10.0747 6.20184 10.0396 6.07472 10.0747 6.02582C10.1098 5.94759 11.2253 5.91825 13.553 5.91825C16.5305 5.91825 16.9697 5.89869 16.9697 5.77157C16.9697 5.64444 16.513 5.62488 13.3685 5.62488H9.76729V5.96715V6.30941H9.20515C8.74841 6.30941 8.64301 6.28007 8.60788 6.13339C8.57275 5.99648 8.44978 5.95737 8.01939 5.93781C7.51873 5.90847 7.46603 5.92803 7.42212 6.11383C7.3782 6.29963 7.31671 6.31919 6.83363 6.28985L6.29784 6.26052L6.27149 5.59554C6.24514 5.01858 6.2627 4.94035 6.40324 4.94035C11.0145 4.91101 12.0949 4.8719 12.0949 4.73499C12.0949 4.61765 11.6294 4.59809 9.04705 4.56875L5.99042 4.54919V5.4293V6.30941H5.19991H4.40061L4.42696 5.25328L4.45331 4.20693L9.39839 4.17759C13.7023 4.15803 14.3347 4.13847 14.3347 4.01135C14.3347 3.88422 13.7023 3.86466 9.2842 3.86466C5.32287 3.86466 4.21616 3.894 4.18981 3.98201Z" fill="#67FC06"/>
<path d="M7.41407 7.7527C7.39651 7.77226 7.37894 8.07541 7.37894 8.41768V9.03375H7.99385H8.60876V8.39812C8.60876 7.8016 8.59119 7.76248 8.4155 7.7527C8.3013 7.7527 8.03777 7.74293 7.83573 7.73315C7.6249 7.72337 7.43164 7.73315 7.41407 7.7527Z" fill="#67FC06"/>
<path d="M2.38761 9.30175L2.41396 9.91783L3.05522 9.94716L3.6877 9.9765V9.33109V8.69545H3.02887H2.36125L2.38761 9.30175Z" fill="#67FC06"/>
<path d="M10.8839 16.0806C10.8488 16.1197 10.8224 16.4326 10.8224 16.7749V17.391H11.4374H12.0611L12.0347 16.726L12.0083 16.0708L11.4813 16.0415C11.1826 16.0219 10.9191 16.0415 10.8839 16.0806Z" fill="#67FC06"/>
<path d="M1.7568 6.63407L1.73045 10.3794L1.53721 10.4088C1.36154 10.4381 1.35276 10.3892 1.29128 9.5091C1.23858 8.80501 1.19466 8.57031 1.10682 8.57031C1.00142 8.57031 0.983856 9.19617 0.983856 12.345C0.983856 15.885 0.99264 16.1099 1.14196 16.0806C1.28249 16.0512 1.29128 15.8263 1.33519 13.4109C1.37911 10.8488 1.38789 10.7706 1.55478 10.7706C1.72166 10.7706 1.73045 10.8488 1.7568 13.0393C1.77437 14.9658 1.80072 15.3178 1.90612 15.3178C2.01152 15.3178 2.03787 14.9658 2.05544 13.0393L2.08179 10.7706H2.69663H3.31147L3.33782 13.2838L3.35538 15.797L3.75064 16.1588C4.12833 16.5011 4.14589 16.5402 4.14589 17.0389V17.567H4.76073H5.38436L5.35801 16.902L5.33166 16.2468L4.76073 16.2175C4.26008 16.1881 4.15468 16.149 3.89996 15.885L3.61889 15.5721V13.0002V10.4283H2.82838H2.03787V6.85899C2.03787 4.55115 2.073 3.28966 2.1257 3.27988C2.1784 3.2701 2.25745 3.25054 2.30137 3.24076C2.35407 3.23098 6.29784 3.21142 11.0848 3.20165C18.7527 3.19187 19.7804 3.17231 19.7804 3.04518C19.7804 2.91805 18.7176 2.8985 10.7774 2.8985H1.77437L1.7568 6.63407Z" fill="#67FC06"/>
<path d="M13.6319 1.02681L12.7272 2.0536H6.35921C0.0614841 2.0536 0 2.0536 0 2.24918C0 2.44476 0.0614841 2.44476 6.39434 2.44476H12.7799L13.8163 1.29084C14.7562 0.234711 14.9055 1.51154e-05 14.6332 1.51154e-05C14.5805 1.51154e-05 14.1238 0.459628 13.6319 1.02681Z" fill="#67FC06"/>
</svg>
