<svg width="60" height="60" viewBox="0 0 60 60" fill="none" xmlns="http://www.w3.org/2000/svg">
<path d="M39.1993 10.9773L10.9774 39.199C10.2714 39.9049 9.12678 39.9049 8.42079 39.199L0.529497 31.3077C-0.176499 30.6017 -0.176499 29.4571 0.529497 28.7511L28.7513 0.529493C29.4573 -0.176498 30.602 -0.176498 31.308 0.529493L39.1993 8.42072C39.9053 9.12671 39.9053 10.2714 39.1993 10.9773Z" fill="#69BC45"/>
<path d="M20.8007 10.9773L49.0226 39.199C49.7286 39.9049 50.8732 39.9049 51.5792 39.199L59.4705 31.3077C60.1765 30.6017 60.1765 29.4571 59.4705 28.7511L31.2487 0.529493C30.5427 -0.176498 29.398 -0.176498 28.692 0.529493L20.8007 8.42072C20.0947 9.12671 20.0947 10.2714 20.8007 10.9773Z" fill="#69BC45"/>
<path d="M37.388 18.2806V58.192C37.388 59.1907 36.5786 60 35.58 60L24.42 59.9993C23.4214 59.9993 22.6121 59.19 22.6121 58.1913V18.2799C22.6121 17.2812 23.4214 16.4719 24.42 16.4719H35.5793C36.578 16.4726 37.388 17.2819 37.388 18.2806Z" fill="#69BC45"/>
</svg>
