<svg width="20" height="24" viewBox="0 0 20 24" fill="none" xmlns="http://www.w3.org/2000/svg">
<path d="M19.6431 6.22606H16.043V2.08318C16.043 0.93439 14.7924 0 13.2548 0H12.0592H7.94011H6.74447C5.20727 0 3.95631 0.93439 3.95631 2.08318V6.22633H0.356907C0.159894 6.22633 0 6.3458 0 6.49299V8.43937C0 8.58657 0.159894 8.70604 0.356907 8.70604H1.27844V11.35V13.1972C1.27844 14.1249 2.28884 14.8801 3.53088 14.8801H7.91227V21.3128C6.13773 21.324 4.69832 22.4051 4.69832 23.7333C4.69832 23.8808 4.85822 24 5.05523 24H14.9444C15.1418 24 15.3013 23.8808 15.3013 23.7333C15.3013 22.4051 13.8619 21.3238 12.0874 21.3128V19.9363H14.9444C15.1418 19.9363 15.3013 19.8171 15.3013 19.6696V18.0961C15.3013 17.9486 15.1418 17.8294 14.9444 17.8294H12.0874V14.8798H16.4691C17.7108 14.8798 18.7216 14.1249 18.7216 13.1969V11.3497V8.70577H19.6431C19.8405 8.70577 20 8.5863 20 8.43911V6.49273C20 6.34553 19.8401 6.22606 19.6431 6.22606ZM18.0077 12.9303H1.99225V11.6164H4.31358H15.6861H18.0077V12.9303ZM11.7026 0.533327V4.62528H8.29702V0.533327H11.7026ZM4.67049 2.08318C4.67049 1.22852 5.60094 0.533327 6.74447 0.533327H7.5832V4.89195C7.5832 5.03914 7.7431 5.15861 7.94011 5.15861H12.0595C12.2569 5.15861 12.4164 5.03914 12.4164 4.89195V0.533327H13.2552C14.3987 0.533327 15.3295 1.22852 15.3295 2.08318V6.49299V11.0833H4.67049V6.49273V2.08318ZM0.713814 8.17244V6.75939H3.95667V11.0831H1.99225V8.43911C1.99225 8.29191 1.83236 8.17244 1.63535 8.17244H0.713814ZM14.5622 23.4664H5.43712C5.61094 22.5509 6.66702 21.8448 7.9394 21.8448H8.26882H11.7301H12.0599C13.3326 21.8448 14.3884 22.5509 14.5622 23.4664ZM14.5875 18.3622V19.4025H12.0874V18.3622H14.5875ZM11.3736 18.0955V19.6691V21.3112H8.62609V14.8798H11.3736V18.0955ZM16.4691 14.3465H11.7305H8.26918H3.53088C2.806 14.3465 2.20033 13.9686 2.0383 13.4636H17.9617C17.7997 13.9686 17.194 14.3465 16.4691 14.3465ZM19.2862 8.17244H18.3647C18.1673 8.17244 18.0077 8.29191 18.0077 8.43911V11.0831H16.043V6.75939H19.2862V8.17244Z" fill="#69BC45"/>
</svg>
