<svg width="24" height="24" viewBox="0 0 24 24" fill="none" xmlns="http://www.w3.org/2000/svg">
<path d="M8.97799 24C8.78812 24 8.59852 23.9573 8.41799 23.8725C8.05639 23.7023 7.77506 23.3826 7.62572 22.9723C7.60919 22.9275 7.55879 22.7891 7.38332 22.7891C7.20812 22.7891 7.15772 22.9275 7.14119 22.9726C6.83159 23.8195 5.97426 24.2232 5.22866 23.8725L3.76573 23.1846C3.40493 23.0147 3.12333 22.6955 2.97373 22.2849C2.82386 21.8753 2.82386 21.4235 2.97346 21.0132C2.99026 20.9675 3.04066 20.8288 2.91693 20.688C2.8348 20.5947 2.7388 20.5732 2.63133 20.6235C1.886 20.9741 1.02787 20.5708 0.718532 19.7245L0.1124 18.063C-0.0374666 17.653 -0.0374666 17.2006 0.1124 16.7907C0.262266 16.3804 0.543599 16.0609 0.904932 15.8913C1.01187 15.8408 1.06653 15.7484 1.06627 15.6164C1.06627 15.4168 0.944399 15.3593 0.904399 15.3405H0.903599C0.158533 14.9896 -0.196666 14.0155 0.111867 13.1692L0.717999 11.508C1.02707 10.662 1.88493 10.2587 2.62973 10.6081C2.67053 10.6272 2.7924 10.6847 2.91693 10.5436C2.99906 10.4503 3.018 10.3413 2.97346 10.2193C2.66466 9.37297 3.01986 8.39887 3.76493 8.04792L5.22866 7.35966C5.97426 7.00932 6.83186 7.41295 7.14066 8.25837C7.15746 8.30439 7.20786 8.44307 7.38332 8.44307C7.55879 8.44307 7.60946 8.30439 7.62599 8.25897C7.77532 7.84898 8.05666 7.52953 8.41826 7.35966C8.77532 7.1913 9.17959 7.191 9.53825 7.35966L11.0012 8.04762C11.7471 8.39886 12.1023 9.37297 11.7935 10.2193C11.7769 10.2647 11.7265 10.4031 11.8503 10.5439C11.9327 10.6372 12.0289 10.6596 12.1367 10.6084C12.4977 10.4385 12.8953 10.4388 13.2566 10.6084C13.618 10.778 13.8993 11.0977 14.0489 11.5083L14.6548 13.1689C14.9636 14.0152 14.6084 14.9893 13.863 15.3405C13.8228 15.3596 13.7006 15.4168 13.7006 15.6158C13.7006 15.815 13.8225 15.8726 13.8625 15.8913C14.2236 16.0612 14.5052 16.3807 14.6548 16.791C14.8046 17.2012 14.8044 17.653 14.6548 18.063L14.0489 19.7239C13.8993 20.1336 13.6182 20.4533 13.2566 20.6235C12.8959 20.7934 12.4977 20.7934 12.1364 20.6235C12.0959 20.6047 11.9745 20.5469 11.8505 20.6877C11.7263 20.8291 11.7769 20.9678 11.7935 21.0132C11.9433 21.4229 11.9431 21.875 11.7935 22.2849C11.6436 22.6952 11.3623 23.0147 11.0009 23.1846L9.53879 23.8725C9.35772 23.9573 9.16785 24 8.97799 24ZM7.38332 21.5779C7.81266 21.5779 8.36066 21.8226 8.61132 22.509C8.65266 22.6223 8.72706 22.7067 8.82679 22.7537C8.92599 22.8003 9.03106 22.8006 9.13079 22.7534L10.5929 22.0657C10.6927 22.0191 10.7668 21.9343 10.8081 21.8214C10.8492 21.7087 10.8492 21.5891 10.8081 21.4765C10.5577 20.7897 10.7927 20.1766 11.0961 19.832C11.3993 19.4865 11.9393 19.2194 12.5447 19.5046C12.6436 19.5513 12.7489 19.5513 12.8486 19.5046C12.9481 19.458 13.0225 19.3732 13.0639 19.2606L13.6697 17.5994C13.7108 17.4868 13.7108 17.3672 13.6697 17.2539C13.6286 17.1413 13.5542 17.0571 13.4548 17.0102C12.85 16.7259 12.6343 16.1033 12.6343 15.6158C12.6343 15.1283 12.85 14.506 13.455 14.2217C13.6569 14.1266 13.7534 13.8623 13.6697 13.6328L13.0639 11.9719C13.0228 11.8587 12.9484 11.7745 12.8489 11.7278C12.7494 11.6809 12.6444 11.6809 12.5449 11.7278C11.9401 12.0116 11.3996 11.7451 11.0964 11.4005C10.7927 11.0559 10.5577 10.4428 10.8081 9.75601C10.8919 9.52649 10.7956 9.26215 10.5929 9.16676L9.13025 8.4788C9.03212 8.43278 8.92466 8.43278 8.82679 8.4788C8.72679 8.52574 8.65266 8.60992 8.61159 8.72256C8.36092 9.40961 7.81266 9.65457 7.38359 9.65457C6.95426 9.65457 6.40599 9.40961 6.15559 8.72256C6.07159 8.49334 5.83853 8.38433 5.63666 8.47911L4.17373 9.16707C3.97186 9.26215 3.87559 9.52649 3.95933 9.75631C4.20999 10.4437 3.97479 11.0565 3.6708 11.4011C3.36706 11.7457 2.8268 12.0125 2.22226 11.7281C2.02066 11.6337 1.7876 11.743 1.70333 11.9728L1.09747 13.6334C1.01373 13.8629 1.11 14.1272 1.3124 14.2223C1.91746 14.5066 2.1332 15.1289 2.1332 15.6164C2.1332 16.1027 1.918 16.7255 1.31266 17.0102C1.21293 17.0568 1.1388 17.1416 1.09747 17.2545C1.0564 17.3672 1.0564 17.4865 1.09747 17.5994L1.70333 19.2606C1.78733 19.4901 2.02013 19.6 2.22253 19.5046C2.82786 19.2194 3.36813 19.4868 3.67133 19.8323C3.97426 20.1766 4.20946 20.7894 3.95879 21.4768C3.91773 21.5894 3.91773 21.7087 3.95879 21.8214C4.00013 21.9346 4.07453 22.0191 4.17373 22.066L5.63666 22.754C5.83799 22.8485 6.07133 22.7391 6.15559 22.5093C6.40599 21.8229 6.95399 21.5779 7.38332 21.5779Z" fill="#69BC45"/>
<path d="M7.38332 19.3872C5.55212 19.3872 4.06226 17.6954 4.06226 15.6158C4.06226 13.5365 5.55212 11.8447 7.38332 11.8447C9.21452 11.8447 10.7044 13.5365 10.7044 15.6158C10.7044 17.6954 9.21452 19.3872 7.38332 19.3872ZM7.38332 13.0559C6.14012 13.0559 5.12892 14.2044 5.12892 15.6158C5.12892 17.0274 6.14012 18.176 7.38332 18.176C8.62652 18.176 9.63771 17.0274 9.63771 15.6158C9.63771 14.2044 8.62652 13.0559 7.38332 13.0559Z" fill="#69BC45"/>
<path d="M19.2241 12.1545C19.07 12.1545 18.9159 12.12 18.7692 12.0509C18.4764 11.9132 18.2484 11.654 18.1271 11.3209L18.1015 11.3024L18.0777 11.3215C17.8268 12.0079 17.1305 12.335 16.5263 12.0512L15.4969 11.5671C15.2039 11.4293 14.9759 11.1701 14.8543 10.837C14.7329 10.5048 14.7327 10.1384 14.8537 9.80567L14.8481 9.77176L14.8199 9.7654C14.2151 10.0503 13.5188 9.7227 13.2681 9.03626L12.8415 7.86684C12.7199 7.53376 12.7201 7.16738 12.8415 6.8346C12.9631 6.50152 13.1911 6.24232 13.4844 6.10455L13.5007 6.07548L13.6884 5.48957L13.4841 6.04884C12.8793 5.76481 12.5908 4.9742 12.8409 4.28715L13.2676 3.11804C13.5188 2.4319 14.2151 2.10457 14.8191 2.38769L14.8487 2.38133L15.3471 2.11698L14.8543 2.34923C14.7329 2.01646 14.7329 1.65007 14.8543 1.31699C14.9756 0.983909 15.2039 0.724713 15.4967 0.586636L16.526 0.10246C17.1308 -0.181263 17.8268 0.146063 18.0777 0.831904L18.1033 0.85098L18.1271 0.832207C18.2484 0.49943 18.4767 0.240234 18.7697 0.10246C19.0601 -0.0341028 19.3876 -0.0341027 19.6785 0.102157L20.7081 0.586636C21.3129 0.871571 21.6015 1.66218 21.3508 2.34893L21.3575 2.38284L21.5895 2.94787L21.3855 2.38829C21.6783 2.25082 22.0012 2.25082 22.2943 2.38829C22.5876 2.52637 22.8159 2.78557 22.9372 3.11865L23.3636 4.28685C23.614 4.9739 23.3257 5.7642 22.7209 6.04914L22.7041 6.07821L22.5164 6.66443L22.7201 6.10455C23.0137 6.24232 23.2423 6.50152 23.3636 6.83521C23.4849 7.16768 23.4852 7.53437 23.3636 7.86745L22.9372 9.03595C22.8156 9.36873 22.5876 9.62793 22.2945 9.766C22.0007 9.90378 21.6783 9.90378 21.3855 9.766L21.3561 9.77266L20.858 10.037L21.3508 9.80506C21.4721 10.1378 21.4724 10.5045 21.3508 10.8373C21.2292 11.1707 21.0009 11.4299 20.7073 11.5677L19.6791 12.0515C19.5321 12.12 19.378 12.1545 19.2241 12.1545ZM18.1023 10.0912C18.4553 10.0912 18.9065 10.2926 19.1124 10.8573C19.1252 10.8924 19.1473 10.9175 19.178 10.9321C19.2092 10.9469 19.2404 10.9466 19.2713 10.9321L20.2996 10.4482C20.3308 10.4337 20.3527 10.4085 20.3655 10.3737C20.3783 10.3386 20.3783 10.3035 20.3655 10.2683C20.1596 9.70332 20.3527 9.19886 20.6025 8.91544C20.8521 8.63172 21.2969 8.41219 21.794 8.64625C21.8252 8.66078 21.8564 8.66048 21.8873 8.64595C21.9175 8.63172 21.9396 8.60658 21.9524 8.57146L22.3788 7.40326C22.3916 7.36844 22.3916 7.33301 22.3788 7.29788C22.366 7.26276 22.3441 7.23793 22.3135 7.22339C21.8156 6.98903 21.6383 6.4773 21.6383 6.07639C21.6383 5.67548 21.8156 5.16375 22.3132 4.92939C22.374 4.90092 22.4039 4.81856 22.3788 4.74983L21.9521 3.58163C21.9393 3.5465 21.9172 3.52137 21.8865 3.50683C21.8564 3.49291 21.8255 3.492 21.7935 3.50683C21.2943 3.7412 20.8513 3.52076 20.6017 3.23704C20.3524 2.95332 20.1593 2.44916 20.3652 1.88474C20.3908 1.81449 20.3612 1.73364 20.2993 1.70457L19.2705 1.2204C19.2409 1.20647 19.2081 1.20616 19.1777 1.2204C19.1471 1.23493 19.1249 1.26006 19.1121 1.29488C18.9063 1.85991 18.4553 2.06127 18.1023 2.06127C17.7495 2.06127 17.2985 1.85991 17.0921 1.29488C17.0665 1.22524 16.9953 1.19102 16.9335 1.2207L15.9047 1.70457C15.8665 1.72244 15.8481 1.75484 15.8396 1.77906C15.8308 1.80328 15.8233 1.84113 15.8393 1.88383C16.0452 2.45006 15.8516 2.95423 15.6017 3.23734C15.3527 3.52046 14.9089 3.7409 14.4103 3.50562C14.3484 3.47655 14.2777 3.51077 14.2519 3.58132L13.8257 4.74922C13.8001 4.81886 13.8297 4.90001 13.8911 4.92878H13.8913C14.3889 5.16284 14.5663 5.67458 14.5663 6.07579C14.5663 6.47699 14.3889 6.98873 13.8916 7.22279C13.8609 7.23732 13.8388 7.26215 13.826 7.29728C13.8132 7.3324 13.8132 7.36753 13.826 7.40265L14.2524 8.57146C14.278 8.6411 14.3487 8.67502 14.4108 8.64564C14.91 8.41067 15.3537 8.63141 15.6033 8.91604C15.8519 9.19674 16.0455 9.7012 15.8391 10.2674C15.8265 10.302 15.8265 10.3377 15.8393 10.3728C15.8521 10.4079 15.8743 10.4331 15.9047 10.4473L16.934 10.9315C16.9948 10.9602 17.0668 10.9266 17.0927 10.8561C17.2988 10.2926 17.7495 10.0912 18.1023 10.0912Z" fill="#69BC45"/>
<path d="M18.1025 8.9091C16.7271 8.9091 15.6081 7.63855 15.6081 6.07671C15.6081 4.51487 16.7271 3.24432 18.1025 3.24432C19.478 3.24432 20.5969 4.51487 20.5969 6.07671C20.5969 7.63855 19.478 8.9091 18.1025 8.9091ZM18.1025 4.45552C17.3153 4.45552 16.6748 5.18285 16.6748 6.07671C16.6748 6.97057 17.3153 7.6979 18.1025 7.6979C18.8897 7.6979 19.5303 6.97057 19.5303 6.07671C19.5303 5.18285 18.8897 4.45552 18.1025 4.45552Z" fill="#69BC45"/>
<path d="M20.5606 22.9735C20.4249 22.9735 20.2889 22.9429 20.1598 22.8821C19.9593 22.7876 19.7932 22.6289 19.6788 22.4257C19.41 22.9008 18.871 23.1055 18.3966 22.8821L17.5873 22.5014C17.3292 22.3806 17.1273 22.1517 17.0204 21.8574C16.9374 21.6297 16.9188 21.3844 16.9644 21.1488C16.4774 21.269 15.9702 20.9808 15.7734 20.4418L15.4382 19.5234C15.331 19.2294 15.3313 18.906 15.4382 18.6123C15.5212 18.3852 15.6609 18.1965 15.8401 18.0666C15.422 17.7617 15.2417 17.1501 15.438 16.6105L15.7734 15.6918C15.97 15.1528 16.4785 14.8642 16.9646 14.9847C16.859 14.4333 17.1124 13.8562 17.5868 13.6321L18.3966 13.2515C18.871 13.0277 19.4102 13.2324 19.6788 13.7075C19.7929 13.5047 19.959 13.346 20.1601 13.2515C20.4142 13.1313 20.7033 13.131 20.9604 13.2506L21.7705 13.6318C22.2457 13.8556 22.4993 14.433 22.3934 14.9844C22.6004 14.933 22.8174 14.9533 23.018 15.048C23.2761 15.1691 23.4774 15.3978 23.5846 15.6915L23.9198 16.6102C24.1164 17.1495 23.9364 17.7617 23.518 18.0666C23.6972 18.1965 23.8369 18.3852 23.9198 18.6129C24.0268 18.9066 24.0268 19.2297 23.9196 19.5237L23.5846 20.4415C23.4774 20.7358 23.2761 20.9644 23.0174 21.0855C22.8172 21.18 22.6012 21.2018 22.3934 21.1491C22.4393 21.3853 22.4204 21.6309 22.3374 21.858C22.2305 22.1514 22.0289 22.3803 21.7702 22.5017L20.962 22.8821C20.8324 22.9432 20.6964 22.9735 20.5606 22.9735ZM19.6788 21.0925C19.9934 21.0925 20.3948 21.2718 20.578 21.7747L21.362 21.3829C21.1678 20.9063 21.3409 20.4572 21.5641 20.205C21.7822 19.9567 22.1702 19.7632 22.606 19.9588L22.9337 19.0601C22.5009 18.8793 22.343 18.4236 22.343 18.0669C22.343 17.7148 22.4966 17.2666 22.9265 17.0541L22.5988 16.1554C22.1788 16.3758 21.7836 16.1793 21.5617 15.9258C21.3406 15.6763 21.1676 15.2273 21.3513 14.7231L20.5708 14.3779C20.3841 14.866 19.9886 15.0408 19.6782 15.0408C19.3681 15.0408 18.9734 14.8663 18.7865 14.3785L18.0121 14.7425C18.1844 15.2388 18.0134 15.6794 17.7932 15.928C17.5732 16.1787 17.1782 16.3758 16.7337 16.1666L16.4297 17.0538C16.8596 17.2654 17.0134 17.7142 17.0134 18.0666C17.0145 18.4173 16.8617 18.8666 16.4302 19.0795L16.751 19.9585C17.186 19.7635 17.5748 19.9564 17.794 20.2059C18.0132 20.4533 18.1844 20.8939 18.0121 21.3905L18.786 21.7544C18.9737 21.2672 19.3686 21.0925 19.6788 21.0925ZM18.006 21.4108C18.0057 21.4108 18.0057 21.4108 18.006 21.4108V21.4108ZM16.0052 18.165L16.2094 17.6055L16.0052 18.165ZM20.5532 14.3707L20.5529 14.3713L20.5537 14.371L20.5532 14.3707Z" fill="#69BC45"/>
<path d="M19.6788 20.423C18.535 20.423 17.6044 19.3663 17.6044 18.0673C17.6044 16.7683 18.535 15.7115 19.6788 15.7115C20.8228 15.7115 21.7534 16.7683 21.7534 18.0673C21.7534 19.366 20.8228 20.423 19.6788 20.423ZM19.6788 16.9224C19.123 16.9224 18.671 17.4359 18.671 18.067C18.671 18.698 19.123 19.2115 19.6788 19.2115C20.2345 19.2115 20.6868 18.698 20.6868 18.067C20.6868 17.4362 20.2345 16.9224 19.6788 16.9224Z" fill="#69BC45"/>
</svg>
