<svg width="20" height="24" viewBox="0 0 20 24" fill="none" xmlns="http://www.w3.org/2000/svg">
<path d="M14.7817 11.1101H13.8946V5.132C13.8946 3.7544 12.3972 2.6336 10.5567 2.6336C8.71582 2.6336 7.21841 3.7544 7.21841 5.132V8.88453H7.21485C7.21485 9.968 6.03702 10.8496 4.58949 10.8496C3.14196 10.8496 1.96412 9.968 1.96412 8.88453V4.0416C2.67916 3.91973 3.2157 3.44187 3.2157 2.87013V1.22533C3.2157 1.07813 3.05609 0.958667 2.85943 0.958667H2.60434V0H0.611005V0.958667H0.356271C0.15961 0.958667 0 1.07813 0 1.22533V2.86987C0 3.4416 0.536545 3.9192 1.25158 4.04133V8.88427C1.25158 10.2619 2.74899 11.3827 4.58949 11.3827C6.41359 11.3827 7.89889 10.2811 7.9249 8.92027H7.93095V5.132C7.93095 4.04853 9.10879 3.16693 10.5567 3.16693C12.0046 3.16693 13.182 4.04853 13.182 5.132V11.1099H12.2946C9.41696 11.1099 7.07626 12.8621 7.07626 15.0157V20.0939C7.0759 22.2477 9.41696 24 12.2946 24H14.7817C17.6589 24 20 22.2477 20 20.0941V15.016C20.0004 12.8621 17.6589 11.1101 14.7817 11.1101ZM1.32355 0.533333H1.8918V0.958667H1.32355V0.533333ZM0.712542 2.87013V1.492H2.50316V2.86987C2.50316 3.23947 2.10164 3.54 1.60785 3.54C1.11406 3.54 0.712542 3.23947 0.712542 2.87013ZM19.2878 20.0941C19.2878 21.9536 17.2663 23.4667 14.7817 23.4667H12.2946C9.80993 23.4667 7.7888 21.9536 7.7888 20.0941V15.016C7.7888 13.1563 9.81029 11.6435 12.2946 11.6435H14.7817C17.2663 11.6435 19.2875 13.1563 19.2875 15.016V20.0941H19.2878Z" fill="#69BC45"/>
<path d="M13.5383 16.7038C13.3413 16.7038 13.182 16.5846 13.182 16.4371V12.9875C13.182 12.84 13.3413 12.7208 13.5383 12.7208C13.7353 12.7208 13.8946 12.84 13.8946 12.9875V16.4371C13.8946 16.5843 13.7353 16.7038 13.5383 16.7038Z" fill="#69BC45"/>
</svg>
